<svg xmlns="http://www.w3.org/2000/svg" viewBox="0 0 32173 8147" shape-rendering="geometricPrecision" image-rendering="optimizeQuality" fill-rule="evenodd" clip-rule="evenodd">
<path d="m4228 0c1858 0 3364 1506 3364 3364 0 1370-820 2550-1996 3074 932-542 1559-1551 1559-2708 0-1727-1400-3128-3128-3128-1728 0-3129 1401-3129 3128 0 45 2 89 3 133-24-163-36-330-36-499 0-1858 1506-3364 3363-3364m2427 4015c-718 2267-3725 2610-4713 407l7-27c486 72 1067-40 1418-391 607-607 1117-1936 1583-1773 916 97 1605 1036 1705 1784m-2135-239h436v381h-436v-381m541 0h437v381h-437v-381m-541 481h436v382h-436v-382m541 0h437v382h-437v-382" fill="#ed258f"/>
<path d="m3648 1704c0 0-1126 727-1417 1490-291 763-291 872-291 872 0 0 763 146 1200-290 935-936 1138-2309 2658-2381-428-333-966-531-1550-531-1395 0-2526 1131-2526 2526 0 142 12 282 35 418 5-22 411-1707 1891-2104m-2783 3594l-26 9c4-21 9-34 14-36 125-29 212-52 303-77 72-20 145-41 242-68 328-87 898-137 1228-67 162 35 295 62 461 78 312 28 845 7 1118 131 77 40 149 97 202 166 172 220-61 330-254 339-241 12-483 12-724 16-25 0-81-7-98 10-69 66-24 83 47 85 307 10 648 52 945-27 355-103 387-246 147-519l18-7c297-108 595-212 895-310 228-74 652-260 856-62 105 102 15 176-74 233-603 383-1264 709-1903 1028-288 144-347 178-670 145-532-57-1010-214-1524-337-217-53-517-58-734 26h1c685 858 1741 1408 2925 1408 1967 0 3580-1518 3732-3447 1 45 2 90 2 135 0 2207-1789 3997-3997 3997-2207 0-3997-1790-3997-3997 0-1596 935-2973 2288-3614-1063 660-1772 1838-1772 3182 0 565 125 1100 349 1580m5904-1745c-7-18-330-836-1013-1304-691-472-909-363-909-363 0 0 169-339 1097-368 510 462 830 1129 830 1872 0 55-2 109-5 163" fill="#07acf0"/>
<path d="m29678 6916c333 0 649-72 937-241 276-161 489-382 643-662 166-302 235-632 235-975 0-344-70-676-235-979-154-282-366-505-643-667-288-168-604-240-937-240-333 0-650 72-938 240-277 162-489 385-642 667-166 303-236 635-236 979 0 343 69 673 235 975 154 280 367 501 643 662 288 169 605 241 938 241m1815-80c-121 129-258 246-411 349-421 284-897 411-1404 411-454 0-886-104-1279-331-385-222-685-532-898-922-221-404-319-845-319-1305 0-460 99-903 319-1308 212-392 512-705 898-928 393-227 825-330 1279-330 507 0 983 126 1404 411 153 103 290 219 411 348v-742h680v5089h-680v-742" fill="#ed258f"/>
<path d="m14251 6916c333 0 650-72 938-241 276-161 488-382 643-662 166-302 235-632 235-975 0-344-70-676-236-979-153-282-365-505-642-667-288-168-605-240-938-240-333 0-649 72-937 240-277 162-489 385-643 667-166 303-235 635-235 979 0 343 69 673 235 975 154 280 367 501 643 662 288 169 604 241 937 241m11902-3485c-298-191-640-261-991-261-269 0-560 42-791 190-172 111-243 259-243 463 0 124 25 244 109 339 93 105 206 182 336 236 220 93 452 170 680 240 266 81 543 168 797 282 226 100 420 246 579 436 185 223 257 496 257 782 0 457-177 839-559 1096-368 248-795 344-1236 344-344 0-680-60-1001-186-306-120-584-293-817-526l-166-166 443-510 191 185c174 168 375 296 601 386 239 95 492 137 749 137 292 0 590-53 838-216 195-128 277-302 277-535 0-127-28-246-114-343-98-110-217-192-352-252-216-95-451-170-676-238l-5-1c-263-84-532-176-784-289-222-99-416-241-573-427-182-214-255-478-255-756 0-428 166-787 523-1029 351-238 765-323 1184-323 481 0 933 121 1350 362l219 127-350 594-220-141m-7277 1413v2734h-680v-5089h680v663c97-100 206-192 326-273 404-274 871-387 1355-390 563-3 1102 145 1506 554 404 407 548 946 548 1507v3028h-681v-3028c0-376-83-750-356-1024-272-272-641-356-1010-357-446 10-863 129-1185 450-329 330-465 771-503 1225m-2809 1992c-122 129-258 246-411 349-421 284-898 411-1405 411-453 0-885-104-1279-331-385-222-684-532-897-922-221-404-320-845-320-1305 0-460 99-903 319-1308 213-392 512-705 898-928 394-227 826-330 1279-330 507 0 984 126 1405 411 153 103 289 219 411 348v-742h680v5089h-680v-742m-5586-6285c126 0 240 49 332 134 98 92 150 214 150 348 0 130-53 246-144 337-92 92-208 145-338 145-134 0-256-52-347-150-86-92-135-206-135-332 0-131 48-250 140-342 93-92 212-140 342-140m-340 1938h680v5089h-680v-5089" fill="#07acf0"/>
</svg>