<svg xmlns="http://www.w3.org/2000/svg" viewBox="0 0 25401 7156" shape-rendering="geometricPrecision" image-rendering="optimizeQuality" fill-rule="evenodd" clip-rule="evenodd">
<path fill="#07acf0" d="m3226 1605l-1634 1628v-1605l1634-1628z"/>
<path d="m57 3165h1005v585 2303h1106 1060v205l-357 357c-332 361-513 494-768 541h-1280c-317-95-698-418-823-872v-3055l57-64" fill="#1d4575"/>
<path d="m1062 3588v162 2149l-624 623-205 214c-102-128-186-281-233-452v-1634l1062-1062" fill="#0f538a"/>
<path fill="#0783b8" d="m1592 3233l-518 517h-12v13l-1062 1059v-1607l1592-1587z"/>
<path fill="#1d4575" d="m2409 4120h677v677h-677z"/><path fill="#07acf0" d="m2409 3219h677v677h-677z"/>
<path d="m6398 3165h-1004v585h4v2303h-1110-1060v205l357 357c331 360 513 493 767 541h1281c332-100 736-451 840-940v-2969l-75-82" fill="#6b004b"/>
<path d="m5394 3588v162h4v2136l619 636 205 214c117-145 208-321 251-520v-1550l-1079-1078" fill="#960b55"/>
<path fill="#c40f70" d="m4860 3233l518 517h20v20l1075 1072v-1607l-1613-1607z"/>
<path fill="#ed258f" d="m3226 1605l1634 1628v-1605l-1634-1628z"/>
<path fill="#6b004b" d="m3354 4120h677v677h-677z"/>
<path fill="#ed258f" d="m3354 3219h677v677h-677z"/>
<g fill="#1d4575" fill-rule="nonzero">
<path d="m8707 2476c-164 0-299-47-405-143-106-95-159-219-159-373 0-154 53-279 159-377 106-98 241-147 405-147 165 0 300 49 406 147 106 98 159 223 159 377 0 154-53 278-159 373-106 96-241 143-406 143m-460 684h913v3901h-913v-3901"/>
<path d="m10161 6012c0-418 183-741 549-969 365-228 948-387 1748-477 0-101-14-197-40-290-26-93-68-175-123-246-56-72-127-127-215-167-87-40-197-60-329-60-196 0-386 37-569 112-182 74-358 164-528 270l-334-612c218-138 460-257 727-358 268-100 558-151 870-151 493 0 859 145 1097 433 238 289 357 706 357 1252v2312h-746l-72-429h-24c-175 148-361 273-560 373-199 101-414 151-647 151-345 0-624-104-839-314-214-209-322-486-322-830m890-71c0 174 52 302 155 381 104 80 237 119 402 119 158 0 304-37 437-111 132-74 270-180 413-318v-874c-265 32-488 74-668 127-180 53-324 113-433 179-108 66-186 142-234 227-48 84-72 174-72 270"/>
<path d="m14484 3160h755l63 524h32c175-169 364-315 568-437 204-122 441-183 711-183 419 0 723 134 914 402 191 267 286 650 286 1148v2447h-914v-2328c0-323-47-551-143-683-95-133-251-199-469-199-169 0-319 41-448 123-130 82-277 203-441 362v2725h-914v-3901"/>
<path d="m18973 6028c175 138 348 245 520 322 173 77 359 115 561 115 211 0 368-44 468-131 101-87 151-200 151-338 0-79-24-149-71-210-48-61-111-115-191-163-79-48-169-92-270-131-101-40-201-81-302-123-127-48-257-104-389-167-133-64-251-141-354-231-103-90-188-194-254-314-66-119-99-260-99-425 0-344 127-625 381-842 254-217 601-326 1041-326 270 0 514 48 731 143 217 96 405 204 564 326l-421 556c-138-100-277-181-417-242-141-61-288-91-441-91-196 0-341 41-433 123-93 82-139 184-139 306 0 79 22 147 67 202 45 56 105 105 179 147 74 43 160 82 258 120 98 37 200 74 306 111 132 47 265 102 397 163 133 61 253 136 362 226 108 90 196 200 262 330 66 130 99 285 99 465 0 169-33 327-99 472-66 146-163 273-290 382-127 108-286 194-477 258-190 64-408 95-651 95-270 0-537-51-799-155-262-103-488-231-679-385l429-588"/>
<path d="m22191 6012c0-418 183-741 548-969 366-228 948-387 1748-477 0-101-13-197-40-290-26-93-67-175-123-246-55-72-127-127-214-167-88-40-198-60-330-60-196 0-385 37-568 112-183 74-359 164-529 270l-333-612c217-138 459-257 727-358 267-100 557-151 870-151 492 0 858 145 1096 433 239 289 358 706 358 1252v2312h-747l-72-429h-23c-175 148-362 273-561 373-198 101-414 151-647 151-344 0-624-104-838-314-215-209-322-486-322-830m890-71c0 174 51 302 155 381 103 80 237 119 401 119 159 0 305-37 437-111 132-74 270-180 413-318v-874c-265 32-487 74-667 127-180 53-325 113-433 179-109 66-187 142-235 227-47 84-71 174-71 270"/>
</g>
</svg>